<?xml version="1.0" encoding="iso-8859-1"?>
<!-- Generator: Adobe Illustrator 19.0.0, SVG Export Plug-In . SVG Version: 6.00 Build 0)  -->
<svg version="1.1" id="Capa_1" xmlns="http://www.w3.org/2000/svg" xmlns:xlink="http://www.w3.org/1999/xlink" x="0px" y="0px"
	 viewBox="0 0 469.341 469.341" style="enable-background:new 0 0 469.341 469.341;" xml:space="preserve">
<g>
	<g>
		<g>
			<path fill="#fff" d="M426.671,106.674H266.033l113.805-87.542c4.677-3.594,5.542-10.292,1.958-14.958c-3.604-4.677-10.302-5.542-14.958-1.958
				L234.671,103.883L102.504,2.216c-4.688-3.594-11.365-2.729-14.958,1.958c-3.583,4.667-2.719,11.365,1.958,14.958l113.805,87.542
				H42.671c-23.531,0-42.667,19.135-42.667,42.667v256c0,19.844,13.615,36.573,32,41.313v12.021c0,5.896,4.771,10.667,10.667,10.667
				h384c5.896,0,10.667-4.771,10.667-10.667v-12.021c18.385-4.74,32-21.469,32-41.313v-256
				C469.337,125.81,450.202,106.674,426.671,106.674z M400.327,388.247c0,0,0,0.01,0,0.021c-1.031,4.563-6.073,8.167-12.552,8.979
				c-24.271,3.021-76.208,8.094-151.281,8.094c-75.052,0-127-5.073-151.281-8.094c-6.469-0.813-11.521-4.427-12.552-8.99
				c-3.948-17.448-8.656-49-8.656-100.25c0-51.24,4.708-82.802,8.656-100.25c1.031-4.573,6.083-8.177,12.542-8.99
				c24.292-3.021,76.24-8.094,151.292-8.094c75.073,0,127.01,5.073,151.281,8.094c6.479,0.813,11.521,4.417,12.552,8.979
				c3.958,17.438,8.667,48.979,8.667,100.26C408.993,339.299,404.285,370.831,400.327,388.247z"/>
			<path fill="#fff" d="M352.004,277.341h-21.333c-5.896,0-10.667,4.771-10.667,10.667c0,5.896,4.771,10.667,10.667,10.667h21.333
				c5.896,0,10.667-4.771,10.667-10.667C362.671,282.112,357.9,277.341,352.004,277.341z"/>
			<path fill="#fff" d="M344.462,195.133l-21.333,21.333c-4.167,4.167-4.167,10.917,0,15.083c2.083,2.083,4.813,3.125,7.542,3.125
				c2.729,0,5.458-1.042,7.542-3.125l21.333-21.333c4.167-4.167,4.167-10.917,0-15.083
				C355.379,190.966,348.629,190.966,344.462,195.133z"/>
			<path fill="#fff" d="M338.212,344.466c-4.167-4.167-10.917-4.167-15.083,0c-4.167,4.167-4.167,10.917,0,15.083l21.333,21.333
				c2.083,2.083,4.813,3.125,7.542,3.125c2.729,0,5.458-1.042,7.542-3.125c4.167-4.167,4.167-10.917,0-15.083L338.212,344.466z"/>
			<path fill="#fff" d="M288.004,192.008c-5.896,0-10.667,4.771-10.667,10.667v13.496l-150.061,46.895c-1.488-4.098-5.324-7.057-9.939-7.057
				c-5.896,0-10.667,4.771-10.667,10.667v42.667c0,5.896,4.771,10.667,10.667,10.667c4.615,0,8.451-2.96,9.939-7.057l22.082,6.9
				c0,0.049-0.021,0.108-0.021,0.158c0,23.531,19.135,42.667,42.667,42.667c14.07,0,26.887-7.318,34.741-18.641l50.592,15.81v13.497
				c0,5.896,4.771,10.667,10.667,10.667c5.896,0,10.667-4.771,10.667-10.667V202.674C298.671,196.779,293.9,192.008,288.004,192.008
				z M192.004,341.341c-9.299,0-17.016-6.07-19.927-14.391l32.5,10.156C201.014,339.762,196.69,341.341,192.004,341.341z"/>
		</g>
	</g>
</g>
</svg>
