<svg width="406" height="103" viewBox="0 0 406 103" fill="none" xmlns="http://www.w3.org/2000/svg">
<path d="M7.06772 81V27.372H17.8097L27.3217 53.612C27.9231 55.3067 28.4971 57.056 29.0437 58.86C29.5904 60.6093 30.1644 62.3587 30.7657 64.108H31.0937C31.6951 62.3587 32.2417 60.6093 32.7337 58.86C33.2804 57.056 33.8544 55.3067 34.4557 53.612L43.7217 27.372H54.5457V81H45.7717V56.482C45.7717 55.2247 45.7991 53.858 45.8537 52.382C45.9631 50.906 46.0724 49.43 46.1817 47.954C46.2911 46.4233 46.4277 44.9473 46.5917 43.526C46.7557 42.05 46.8924 40.6833 47.0017 39.426H46.6737L42.3277 51.89L33.5537 75.998H27.8957L19.0397 51.89L14.7757 39.426H14.4477C14.5571 40.6833 14.6664 42.05 14.7757 43.526C14.9397 44.9473 15.0764 46.4233 15.1857 47.954C15.3497 49.43 15.4591 50.906 15.5137 52.382C15.6231 53.858 15.6777 55.2247 15.6777 56.482V81H7.06772ZM70.7693 81.504C69.7053 81.504 68.6973 81.336 67.7453 81C66.8213 80.636 65.9953 80.132 65.2673 79.488C64.5673 78.844 64.0073 78.06 63.5873 77.136C63.1673 76.212 62.9573 75.176 62.9573 74.028C62.9573 73.132 63.1113 72.306 63.4193 71.55C63.7553 70.794 64.1893 70.08 64.7213 69.408C65.2533 68.736 65.8693 68.106 66.5693 67.518C67.2693 66.93 67.9833 66.356 68.7113 65.796C68.1233 64.592 67.6613 63.402 67.3253 62.226C66.9893 61.05 66.8213 59.916 66.8213 58.824C66.8213 57.956 66.9473 57.158 67.1993 56.43C67.4793 55.674 67.8573 55.03 68.3333 54.498C68.8373 53.938 69.4113 53.518 70.0553 53.238C70.7273 52.93 71.4693 52.776 72.2813 52.776C73.7093 52.776 74.7873 53.238 75.5153 54.162C76.2713 55.086 76.6493 56.248 76.6493 57.648C76.6493 58.544 76.4533 59.37 76.0613 60.126C75.6973 60.854 75.2073 61.554 74.5913 62.226C74.0033 62.898 73.3173 63.542 72.5333 64.158C71.7493 64.774 70.9653 65.39 70.1813 66.006C71.1613 67.91 72.3513 69.744 73.7513 71.508C75.1793 73.272 76.6353 74.826 78.1193 76.17C79.1833 74.854 80.0793 73.398 80.8073 71.802C81.5633 70.206 82.1933 68.484 82.6973 66.636H83.9573C83.3973 68.568 82.7113 70.416 81.8993 72.18C81.0873 73.916 80.1213 75.498 79.0013 76.926C80.9613 78.55 82.7813 79.684 84.4613 80.328L83.9573 81.504C83.1173 81.196 82.2073 80.748 81.2273 80.16C80.2753 79.544 79.2673 78.788 78.2033 77.892C77.1953 78.956 76.0893 79.824 74.8853 80.496C73.6813 81.168 72.3093 81.504 70.7693 81.504ZM68.0813 58.74C68.0813 59.72 68.2213 60.742 68.5013 61.806C68.8093 62.87 69.2153 63.948 69.7193 65.04C70.4473 64.508 71.1473 63.976 71.8193 63.444C72.5193 62.884 73.1213 62.31 73.6253 61.722C74.1573 61.134 74.5773 60.518 74.8853 59.874C75.2213 59.202 75.3893 58.488 75.3893 57.732C75.3893 57.284 75.3333 56.836 75.2213 56.388C75.1093 55.912 74.9273 55.506 74.6753 55.17C74.4233 54.806 74.0873 54.512 73.6673 54.288C73.2753 54.064 72.7853 53.952 72.1973 53.952C71.5533 53.952 70.9653 54.078 70.4333 54.33C69.9293 54.582 69.4953 54.932 69.1313 55.38C68.7953 55.8 68.5293 56.304 68.3333 56.892C68.1653 57.48 68.0813 58.096 68.0813 58.74ZM70.8533 80.328C72.0853 80.328 73.2473 80.034 74.3393 79.446C75.4313 78.83 76.4253 78.046 77.3213 77.094C75.8093 75.666 74.3253 74.07 72.8693 72.306C71.4413 70.542 70.2233 68.694 69.2153 66.762C68.5433 67.266 67.9133 67.784 67.3253 68.316C66.7373 68.848 66.2193 69.408 65.7713 69.996C65.3233 70.584 64.9593 71.2 64.6793 71.844C64.4273 72.488 64.3013 73.188 64.3013 73.944C64.3013 74.924 64.4693 75.806 64.8053 76.59C65.1693 77.374 65.6453 78.046 66.2333 78.606C66.8493 79.138 67.5493 79.558 68.3333 79.866C69.1173 80.174 69.9573 80.328 70.8533 80.328ZM107.413 81.984C103.805 81.984 100.307 81.3007 96.9173 79.934C93.5826 78.5673 90.6306 76.6267 88.0613 74.112L93.6373 67.634C95.5506 69.438 97.7373 70.914 100.197 72.062C102.657 73.1553 105.117 73.702 107.577 73.702C110.639 73.702 112.962 73.0733 114.547 71.816C116.133 70.5587 116.925 68.8913 116.925 66.814C116.925 65.7207 116.707 64.7913 116.269 64.026C115.887 63.2607 115.313 62.6047 114.547 62.058C113.837 61.4567 112.962 60.91 111.923 60.418C110.939 59.926 109.846 59.434 108.643 58.942L101.263 55.744C99.9513 55.1973 98.6393 54.514 97.3273 53.694C96.07 52.874 94.922 51.89 93.8833 50.742C92.8446 49.594 91.9973 48.2547 91.3413 46.724C90.74 45.1933 90.4393 43.444 90.4393 41.476C90.4393 39.344 90.8766 37.376 91.7513 35.572C92.6806 33.7133 93.938 32.1007 95.5233 30.734C97.1086 29.3673 98.9946 28.3013 101.181 27.536C103.423 26.7707 105.855 26.388 108.479 26.388C111.595 26.388 114.602 27.0167 117.499 28.274C120.397 29.4767 122.884 31.1167 124.961 33.194L120.123 39.262C118.374 37.8407 116.57 36.72 114.711 35.9C112.853 35.08 110.775 34.67 108.479 34.67C105.91 34.67 103.86 35.244 102.329 36.392C100.799 37.4853 100.033 39.016 100.033 40.984C100.033 42.0227 100.252 42.9247 100.689 43.69C101.181 44.4007 101.81 45.0567 102.575 45.658C103.395 46.2047 104.325 46.724 105.363 47.216C106.402 47.6533 107.468 48.0907 108.561 48.528L115.859 51.562C117.445 52.218 118.893 52.9833 120.205 53.858C121.517 54.7327 122.638 55.744 123.567 56.892C124.551 58.04 125.317 59.3793 125.863 60.91C126.41 62.386 126.683 64.108 126.683 66.076C126.683 68.2627 126.246 70.3127 125.371 72.226C124.497 74.1393 123.212 75.834 121.517 77.31C119.877 78.7313 117.855 79.8793 115.449 80.754C113.099 81.574 110.42 81.984 107.413 81.984Z" fill="#565656"/>
<path d="M153.999 81V26.962H166.545C170.7 26.962 174.308 27.5907 177.369 28.848C180.485 30.1053 183.054 31.9093 185.077 34.26C187.1 36.6107 188.603 39.426 189.587 42.706C190.571 45.986 191.063 49.676 191.063 53.776C191.063 57.876 190.571 61.6207 189.587 65.01C188.603 68.3447 187.1 71.2147 185.077 73.62C183.054 75.9707 180.512 77.802 177.451 79.114C174.39 80.3713 170.782 81 166.627 81H153.999ZM157.771 77.802H166.135C169.798 77.802 172.941 77.228 175.565 76.08C178.244 74.8773 180.43 73.21 182.125 71.078C183.82 68.946 185.077 66.4313 185.897 63.534C186.717 60.582 187.127 57.3293 187.127 53.776C187.127 50.2773 186.717 47.0793 185.897 44.182C185.077 41.2847 183.82 38.7973 182.125 36.72C180.43 34.6427 178.244 33.03 175.565 31.882C172.941 30.734 169.798 30.16 166.135 30.16H157.771V77.802ZM203.487 81V26.962H207.259V81H203.487ZM242.948 81.984C239.45 81.984 236.279 81.328 233.436 80.016C230.594 78.704 228.161 76.8453 226.138 74.44C224.116 71.98 222.53 69.028 221.382 65.584C220.289 62.0853 219.742 58.1767 219.742 53.858C219.742 49.594 220.316 45.74 221.464 42.296C222.612 38.852 224.225 35.9273 226.302 33.522C228.38 31.062 230.894 29.2033 233.846 27.946C236.798 26.634 240.051 25.978 243.604 25.978C245.408 25.978 247.048 26.1693 248.524 26.552C250.055 26.9347 251.422 27.454 252.624 28.11C253.827 28.7113 254.893 29.3947 255.822 30.16C256.806 30.9253 257.654 31.6907 258.364 32.456L256.15 34.998C254.729 33.4673 253.034 32.1553 251.066 31.062C249.098 29.9687 246.638 29.422 243.686 29.422C240.57 29.422 237.782 29.996 235.322 31.144C232.862 32.292 230.758 33.932 229.008 36.064C227.314 38.1413 226.002 40.6833 225.072 43.69C224.143 46.6967 223.678 50.086 223.678 53.858C223.678 57.63 224.116 61.0467 224.99 64.108C225.865 67.1147 227.122 69.684 228.762 71.816C230.457 73.948 232.507 75.6153 234.912 76.818C237.372 77.966 240.133 78.54 243.194 78.54C245.654 78.54 247.95 78.1847 250.082 77.474C252.269 76.7633 254.018 75.752 255.33 74.44V57.63H242.374V54.432H258.938V75.834C257.244 77.638 255.03 79.114 252.296 80.262C249.618 81.41 246.502 81.984 242.948 81.984ZM272.835 81V26.962H276.607V81H272.835ZM304.178 81V30.242H286.958V26.962H325.17V30.242H307.95V81H304.178ZM339.715 49.184L336.271 59.27H355.459L352.015 49.184C350.921 45.9587 349.883 42.87 348.899 39.918C347.915 36.966 346.958 33.8227 346.029 30.488H345.701C344.771 33.8227 343.815 36.966 342.831 39.918C341.847 42.87 340.808 45.9587 339.715 49.184ZM324.955 81L343.979 26.962H347.751L366.775 81H362.839L356.525 62.468H335.123L328.727 81H324.955ZM375.415 81V26.962H379.187V77.72H404.115V81H375.415Z" fill="#1D1D1D"/>
<rect x="111.624" y="39" width="18" height="22.0955" transform="rotate(45 111.624 39)" fill="white"/>
<rect x="23.6267" y="41.7939" width="18" height="8.12229" transform="rotate(69.8819 23.6267 41.7939)" fill="white"/>
</svg>
